<?xml version="1.0" standalone="no"?>
<!DOCTYPE svg PUBLIC "-//W3C//DTD SVG 20010904//EN"
 "http://www.w3.org/TR/2001/REC-SVG-20010904/DTD/svg10.dtd">
<svg version="1.0" xmlns="http://www.w3.org/2000/svg"
 width="1180.000000pt" height="1180.000000pt" viewBox="0 0 1180.000000 1180.000000"
 preserveAspectRatio="xMidYMid meet">
<metadata>
Created by potrace 1.14, written by Peter Selinger 2001-2017
</metadata>
<g transform="translate(0.000000,1180.000000) scale(0.100000,-0.100000)"
fill="#000000" stroke="none">
<path d="M1366 11789 c-674 -98 -1201 -599 -1342 -1274 -18 -87 -19 -225 -19
-4615 l0 -4525 22 -101 c43 -190 98 -336 188 -489 228 -390 585 -648 1047
-758 l93 -22 4505 -2 c4474 -3 4506 -3 4624 17 325 55 612 205 852 444 229
230 370 490 440 816 18 82 19 244 19 4620 l0 4535 -23 102 c-69 311 -211 574
-432 793 -118 119 -183 170 -318 252 -157 97 -395 179 -595 207 -96 13 -8970
13 -9061 0z m3475 -4296 c297 -101 472 -252 547 -470 40 -115 43 -178 39 -689
-3 -429 -6 -496 -21 -549 -54 -185 -156 -311 -341 -419 -60 -36 -118 -71 -129
-78 -17 -13 8 -57 384 -678 387 -638 440 -733 440 -783 -1 -74 -86 -168 -206
-228 -122 -61 -209 -56 -278 18 -14 15 -239 386 -499 823 l-474 795 -224 5
c-258 6 -265 8 -305 95 -19 39 -24 67 -24 130 0 97 12 144 47 186 49 57 61 59
415 59 178 0 352 5 387 10 120 20 196 82 243 198 23 56 23 62 23 462 l0 405
-26 61 c-51 122 -118 174 -246 194 -43 7 -266 9 -598 8 l-530 -3 -5 -1660 c-6
-1861 1 -1705 -80 -1764 -23 -17 -66 -35 -98 -42 -72 -15 -204 -7 -259 16 -52
21 -98 71 -112 122 -15 51 -15 3549 -1 3613 15 65 37 101 79 132 81 58 60 57
961 55 l825 -2 66 -22z m3494 -6 c44 -16 130 -54 190 -85 190 -98 300 -229
357 -427 21 -74 23 -98 23 -341 l0 -260 -28 -42 c-15 -23 -45 -51 -67 -62 -59
-30 -173 -44 -254 -32 -84 13 -131 37 -170 86 l-31 38 -6 206 c-8 251 -20 299
-97 384 -45 50 -93 75 -173 88 -85 13 -903 13 -989 -1 -119 -19 -179 -62 -232
-168 l-33 -66 -3 -333 c-3 -287 -1 -341 13 -390 23 -78 61 -139 108 -173 80
-58 91 -59 666 -59 295 0 557 -5 596 -10 99 -15 184 -44 310 -109 91 -47 123
-70 195 -141 93 -93 131 -156 171 -290 22 -72 23 -92 27 -532 4 -508 -2 -577
-58 -712 -72 -170 -229 -310 -447 -397 -144 -58 -152 -59 -823 -59 -582 0
-620 1 -699 20 -154 37 -335 137 -438 242 -144 147 -193 321 -193 693 0 239
20 299 117 346 42 21 62 24 163 24 134 0 192 -17 239 -70 41 -47 51 -108 51
-314 0 -152 3 -189 20 -242 35 -110 100 -181 195 -210 53 -16 917 -25 1027
-10 93 13 142 36 192 91 46 51 72 111 86 193 13 81 13 644 0 726 -21 125 -92
224 -190 263 -54 22 -65 23 -650 28 -667 7 -635 3 -806 84 -248 118 -363 254
-420 501 -17 71 -19 125 -19 480 0 463 5 506 81 662 76 158 205 264 428 353
148 59 142 59 846 57 l645 -2 80 -28z"/>
</g>
</svg>
